<svg width="89" height="31" viewBox="0 0 89 31" fill="none" xmlns="http://www.w3.org/2000/svg">
<path d="M53.3119 7.4734L49.2136 1.55326C48.9098 1.1154 48.5061 0.756227 48.0358 0.505512C47.5656 0.254797 47.0423 0.119756 46.5095 0.11158L38.7319 0H38.7159C34.7005 0 31.6196 0.67164 29.6354 3.9495C27.788 7.00065 27 12.1981 27 21.3281V22.4439H29.5494L27.9083 30.8124H30.1824L31.8235 22.4439H32.579C34.4013 22.4602 36.157 21.759 37.4667 20.4918C38.6508 19.3589 39.5049 17.8089 39.9368 16.0095L39.9407 15.9933L41.8545 6.82275H39.5748L37.763 15.5042C37.2113 17.7832 35.5614 20.2123 32.579 20.2123H29.2358C29.2964 12.3134 30.0156 7.63038 31.5444 5.10484C32.8276 2.98483 34.7032 2.23229 38.7081 2.23125L46.4774 2.34283C46.655 2.34553 46.8295 2.39053 46.9862 2.47411C47.143 2.55768 47.2775 2.67741 47.3788 2.82338L52.0148 9.51949L58.2423 10.5575V11.7401L57.2038 17.2787C56.8973 18.9135 56.3734 19.7369 54.2248 19.995L45.4165 21.502L45.3583 30.8124H47.5899L47.6364 23.3858L54.5195 22.2073C56.0788 22.0156 57.2292 21.5131 58.036 20.6715C58.7257 19.9519 59.1455 19.0326 59.3972 17.6901L60.4739 11.9475V8.66702L53.3119 7.4734Z" fill="#FAFF00"/>
<path d="M3.18 13.516C4.004 13.516 4.664 13.64 5.16 13.888C5.656 14.136 6.036 14.464 6.3 14.872C6.564 15.28 6.736 15.744 6.816 16.264C6.904 16.784 6.948 17.312 6.948 17.848C6.948 18.432 6.872 18.984 6.72 19.504C6.576 20.024 6.348 20.48 6.036 20.872C5.732 21.256 5.34 21.564 4.86 21.796C4.38 22.02 3.808 22.132 3.144 22.132C2.616 22.132 2.192 22.092 1.872 22.012C1.56 21.94 1.316 21.828 1.14 21.676C0.972 21.524 0.86 21.332 0.804 21.1C0.748 20.868 0.72 20.596 0.72 20.284V15.772C0.72 15.428 0.748 15.116 0.804 14.836C0.868 14.556 0.988 14.32 1.164 14.128C1.34 13.928 1.588 13.776 1.908 13.672C2.236 13.568 2.66 13.516 3.18 13.516ZM3.228 20.932C3.724 20.932 4.132 20.844 4.452 20.668C4.78 20.484 5.04 20.244 5.232 19.948C5.424 19.652 5.556 19.316 5.628 18.94C5.708 18.564 5.748 18.18 5.748 17.788C5.748 17.428 5.72 17.068 5.664 16.708C5.608 16.34 5.492 16.008 5.316 15.712C5.14 15.416 4.888 15.176 4.56 14.992C4.232 14.808 3.796 14.716 3.252 14.716C2.756 14.716 2.412 14.788 2.22 14.932C2.028 15.076 1.932 15.296 1.932 15.592V20.188C1.932 20.436 2.02 20.624 2.196 20.752C2.38 20.872 2.724 20.932 3.228 20.932ZM10.9337 15.916C11.3897 15.916 11.7977 15.988 12.1577 16.132C12.5177 16.268 12.8217 16.464 13.0697 16.72C13.3257 16.976 13.5217 17.288 13.6577 17.656C13.7937 18.024 13.8617 18.436 13.8617 18.892C13.8617 19.396 13.7817 19.848 13.6217 20.248C13.4697 20.648 13.2537 20.988 12.9737 21.268C12.7017 21.548 12.3737 21.764 11.9897 21.916C11.6137 22.068 11.2017 22.144 10.7537 22.144C10.2657 22.144 9.83369 22.06 9.45769 21.892C9.08969 21.724 8.77769 21.496 8.52169 21.208C8.27369 20.92 8.08569 20.588 7.95769 20.212C7.82969 19.836 7.76569 19.44 7.76569 19.024C7.76569 18.568 7.83769 18.152 7.98169 17.776C8.13369 17.392 8.34569 17.064 8.61769 16.792C8.89769 16.512 9.23369 16.296 9.62569 16.144C10.0177 15.992 10.4537 15.916 10.9337 15.916ZM10.8017 21.04C11.1297 21.04 11.4097 20.984 11.6417 20.872C11.8737 20.752 12.0617 20.596 12.2057 20.404C12.3577 20.212 12.4657 19.996 12.5297 19.756C12.6017 19.508 12.6377 19.252 12.6377 18.988C12.6377 18.716 12.6017 18.464 12.5297 18.232C12.4657 17.992 12.3617 17.784 12.2177 17.608C12.0817 17.432 11.9017 17.296 11.6777 17.2C11.4617 17.096 11.2017 17.044 10.8977 17.044C10.5857 17.044 10.3137 17.096 10.0817 17.2C9.84969 17.304 9.65369 17.448 9.49369 17.632C9.34169 17.808 9.22569 18.02 9.14569 18.268C9.06569 18.516 9.02569 18.784 9.02569 19.072C9.02569 19.656 9.17369 20.132 9.46969 20.5C9.77369 20.86 10.2177 21.04 10.8017 21.04ZM17.4163 23.644C17.7923 23.644 18.1083 23.568 18.3643 23.416C18.6283 23.272 18.8403 23.06 19.0003 22.78C19.1603 22.508 19.2723 22.18 19.3363 21.796C19.4083 21.404 19.4443 20.964 19.4443 20.476C19.3723 20.732 19.2683 20.948 19.1323 21.124C18.9963 21.3 18.8363 21.444 18.6523 21.556C18.4763 21.66 18.2763 21.736 18.0523 21.784C17.8283 21.832 17.5963 21.856 17.3563 21.856C16.9883 21.856 16.6403 21.804 16.3123 21.7C15.9843 21.596 15.6963 21.432 15.4483 21.208C15.2083 20.984 15.0163 20.7 14.8723 20.356C14.7283 20.004 14.6563 19.584 14.6563 19.096C14.6563 18.624 14.7243 18.192 14.8603 17.8C15.0043 17.4 15.2083 17.056 15.4723 16.768C15.7443 16.48 16.0723 16.256 16.4563 16.096C16.8403 15.936 17.2803 15.856 17.7763 15.856C18.0403 15.856 18.2723 15.88 18.4723 15.928C18.6803 15.976 18.8643 16.04 19.0243 16.12C19.1843 16.2 19.3243 16.296 19.4443 16.408C19.5723 16.52 19.6883 16.64 19.7923 16.768C20.0963 17.152 20.3163 17.608 20.4523 18.136C20.5883 18.656 20.6563 19.284 20.6563 20.02C20.6563 20.564 20.6083 21.12 20.5123 21.688C20.4243 22.256 20.2603 22.768 20.0203 23.224C19.7803 23.688 19.4483 24.064 19.0243 24.352C18.6003 24.648 18.0563 24.796 17.3923 24.796C17.2723 24.796 17.1363 24.788 16.9843 24.772C16.8403 24.764 16.6883 24.748 16.5283 24.724C16.3763 24.7 16.2243 24.664 16.0723 24.616C15.9203 24.576 15.7803 24.52 15.6523 24.448C15.4923 24.36 15.3643 24.276 15.2683 24.196C15.1723 24.116 15.1243 23.984 15.1243 23.8C15.1243 23.648 15.1563 23.508 15.2203 23.38C15.2923 23.26 15.4123 23.2 15.5803 23.2C15.6603 23.2 15.7483 23.224 15.8443 23.272C15.9403 23.32 16.0563 23.368 16.1923 23.416C16.3363 23.472 16.5043 23.524 16.6963 23.572C16.8963 23.62 17.1363 23.644 17.4163 23.644ZM17.4763 20.764C17.7883 20.764 18.0523 20.708 18.2683 20.596C18.4923 20.476 18.6723 20.32 18.8083 20.128C18.9523 19.936 19.0563 19.72 19.1203 19.48C19.1923 19.24 19.2283 19 19.2283 18.76C19.2283 18.56 19.2003 18.36 19.1443 18.16C19.0963 17.952 19.0123 17.764 18.8923 17.596C18.7723 17.428 18.6083 17.292 18.4003 17.188C18.1923 17.084 17.9323 17.032 17.6203 17.032C17.0923 17.032 16.6643 17.192 16.3363 17.512C16.0163 17.832 15.8563 18.304 15.8563 18.928C15.8563 19.512 16.0003 19.964 16.2883 20.284C16.5763 20.604 16.9723 20.764 17.4763 20.764Z" fill="white"/>
<path d="M68.936 24.12C68.456 24.12 68.004 24.024 67.58 23.832C67.164 23.64 66.8 23.364 66.488 23.004C66.176 22.636 65.928 22.188 65.744 21.66C65.568 21.132 65.48 20.532 65.48 19.86C65.48 19.228 65.556 18.648 65.708 18.12C65.868 17.592 66.1 17.136 66.404 16.752C66.716 16.368 67.1 16.072 67.556 15.864C68.012 15.648 68.54 15.54 69.14 15.54C69.628 15.54 70.092 15.628 70.532 15.804C70.972 15.98 71.356 16.244 71.684 16.596C72.02 16.948 72.284 17.388 72.476 17.916C72.668 18.444 72.764 19.06 72.764 19.764C72.764 20.348 72.684 20.904 72.524 21.432C72.372 21.96 72.136 22.424 71.816 22.824C71.504 23.216 71.108 23.532 70.628 23.772C70.148 24.004 69.584 24.12 68.936 24.12ZM68.96 22.992C69.4 22.992 69.784 22.904 70.112 22.728C70.44 22.544 70.712 22.304 70.928 22.008C71.144 21.712 71.304 21.372 71.408 20.988C71.512 20.596 71.564 20.196 71.564 19.788C71.564 19.292 71.496 18.852 71.36 18.468C71.232 18.076 71.056 17.748 70.832 17.484C70.608 17.22 70.348 17.02 70.052 16.884C69.756 16.74 69.44 16.668 69.104 16.668C68.704 16.668 68.352 16.752 68.048 16.92C67.752 17.088 67.5 17.316 67.292 17.604C67.092 17.892 66.94 18.232 66.836 18.624C66.732 19.008 66.68 19.42 66.68 19.86C66.68 20.332 66.74 20.764 66.86 21.156C66.98 21.54 67.14 21.868 67.34 22.14C67.548 22.412 67.792 22.624 68.072 22.776C68.352 22.92 68.648 22.992 68.96 22.992ZM76.523 15.528C76.747 15.528 77.003 15.548 77.291 15.588C77.587 15.62 77.863 15.684 78.119 15.78C78.375 15.868 78.591 15.988 78.767 16.14C78.943 16.284 79.031 16.464 79.031 16.68C79.031 16.808 78.995 16.916 78.923 17.004C78.851 17.092 78.735 17.136 78.575 17.136C78.455 17.136 78.331 17.112 78.203 17.064C78.083 17.016 77.943 16.968 77.783 16.92C77.631 16.864 77.451 16.812 77.243 16.764C77.043 16.716 76.807 16.692 76.535 16.692C76.007 16.692 75.615 16.788 75.359 16.98C75.111 17.164 74.987 17.42 74.987 17.748C74.987 17.972 75.043 18.16 75.155 18.312C75.267 18.464 75.415 18.596 75.599 18.708C75.791 18.812 76.003 18.9 76.235 18.972C76.475 19.044 76.719 19.112 76.967 19.176C77.247 19.248 77.523 19.336 77.795 19.44C78.075 19.544 78.323 19.68 78.539 19.848C78.755 20.016 78.927 20.228 79.055 20.484C79.191 20.74 79.259 21.064 79.259 21.456C79.259 21.864 79.183 22.232 79.031 22.56C78.879 22.88 78.671 23.156 78.407 23.388C78.143 23.612 77.827 23.788 77.459 23.916C77.091 24.036 76.691 24.096 76.259 24.096C76.019 24.096 75.739 24.072 75.419 24.024C75.099 23.984 74.795 23.912 74.507 23.808C74.219 23.696 73.975 23.552 73.775 23.376C73.575 23.192 73.475 22.968 73.475 22.704C73.475 22.544 73.515 22.416 73.595 22.32C73.683 22.224 73.811 22.176 73.979 22.176C74.115 22.176 74.227 22.204 74.315 22.26C74.403 22.308 74.479 22.364 74.543 22.428C74.783 22.636 75.055 22.776 75.359 22.848C75.663 22.92 75.975 22.956 76.295 22.956C76.479 22.956 76.671 22.944 76.871 22.92C77.079 22.888 77.267 22.828 77.435 22.74C77.603 22.652 77.743 22.528 77.855 22.368C77.967 22.2 78.023 21.976 78.023 21.696C78.023 21.44 77.971 21.232 77.867 21.072C77.771 20.904 77.639 20.764 77.471 20.652C77.303 20.54 77.103 20.448 76.871 20.376C76.647 20.304 76.403 20.232 76.139 20.16C75.843 20.08 75.551 19.992 75.263 19.896C74.975 19.8 74.719 19.672 74.495 19.512C74.271 19.344 74.087 19.136 73.943 18.888C73.807 18.632 73.739 18.308 73.739 17.916C73.739 17.524 73.811 17.18 73.955 16.884C74.099 16.588 74.295 16.34 74.543 16.14C74.791 15.94 75.083 15.788 75.419 15.684C75.763 15.58 76.131 15.528 76.523 15.528Z" fill="#FAFF00"/>
</svg>
